<svg xmlns="http://www.w3.org/2000/svg" xmlns:xlink="http://www.w3.org/1999/xlink" width="100" height="100" viewBox="0 0 100 100"><g><g transform="translate(50 50) scale(0.69 0.69) rotate(0) translate(-50 -50)" style="fill:#000000"><svg fill="#000000" xmlns="http://www.w3.org/2000/svg" xmlns:xlink="http://www.w3.org/1999/xlink" version="1.1" x="0px" y="0px" viewBox="0 0 100 100" style="enable-background:new 0 0 100 100;" xml:space="preserve"><title>close</title><g><path d="M50,10.1c-22.1,0-39.9,17.9-39.9,39.9S27.9,89.9,50,89.9S89.9,72.1,89.9,50C89.9,28,72,10.1,50,10.1z M50,82.9   c-18.2,0-32.9-14.7-32.9-32.9S31.8,17.1,50,17.1S82.9,31.8,82.9,50C82.9,68.2,68.2,82.9,50,82.9z"></path><path d="M67.9,32.1c-1.4-1.4-3.6-1.4-5,0L50,45L37.1,32.1c-1.4-1.4-3.6-1.4-5,0c-1.4,1.4-1.4,3.6,0,4.9L45,50L32.1,62.9   c-1.4,1.4-1.4,3.6,0,5c1.4,1.4,3.6,1.4,5,0L50,54.9l12.9,12.9c1.4,1.4,3.6,1.4,5,0c1.4-1.4,1.4-3.6,0-4.9L55,50l12.9-12.9   C69.2,35.7,69.2,33.5,67.9,32.1z"></path></g></svg></g></g></svg>